<?xml version="1.0" encoding="utf-8"?><svg width="22" height="16" xmlns="http://www.w3.org/2000/svg" viewBox="0 0 22 16"><path d="M19.507 7.113c1.236-.107 2.074-.7 2.397-1.505-.446.29-1.83.604-2.594.304-.037-.19-.079-.37-.12-.532-.582-2.257-2.576-4.075-4.665-3.856.17-.072.34-.139.512-.199.23-.087 1.579-.319 1.366-.821-.179-.442-1.827.334-2.137.435.41-.162 1.087-.442 1.16-.939a3.202 3.202 0 00-1.72.86c.171-.196.302-.434.33-.69-1.674 1.129-2.652 3.405-3.444 5.613-.62-.636-1.172-1.136-1.666-1.414-1.386-.785-3.043-1.604-5.644-2.623-.08.908.426 2.117 1.882 2.92-.315-.045-.893.055-1.354.172.188 1.04.802 1.898 2.464 2.313-.76.053-1.152.235-1.508.628.346.724 1.19 1.576 2.708 1.402-1.688.768-.688 2.19.686 1.978a5.616 5.616 0 01-8.16.23c5.54 7.969 17.58 4.713 19.375-2.962C20.72 8.439 21.51 7.935 22 7.38c-.775.138-1.897-.005-2.493-.267z"/></svg>