<?xml version="1.0" encoding="utf-8"?><svg width="25" height="14" xmlns="http://www.w3.org/2000/svg" viewBox="0 0 25 14"><path d="M24.777 12.487c-.067-.11-.483-.997-2.483-2.819-2.094-1.908-1.813-1.598.71-4.897 1.536-2.009 2.15-3.236 1.958-3.76-.183-.5-1.313-.368-1.313-.368l-3.757.021s-.278-.037-.485.085c-.202.12-.332.395-.332.395S18.48 2.7 17.686 4.021c-1.674 2.79-2.344 2.937-2.617 2.764-.636-.403-.477-1.623-.477-2.488 0-2.703.417-3.83-.814-4.122-.41-.097-.71-.161-1.755-.172-1.34-.014-2.477.005-3.119.313-.428.206-.758.664-.556.69.248.032.81.149 1.11.548.385.513.371 1.67.371 1.67s.222 3.182-.517 3.578c-.508.271-1.203-.282-2.696-2.814-.764-1.296-1.342-2.73-1.342-2.73s-.11-.267-.31-.41C4.725.675 4.388.62 4.388.62L.814.64S.278.657.082.885c-.175.204-.014.624-.014.624s2.797 6.422 5.962 9.66c2.905 2.967 6.202 2.772 6.202 2.772h1.494s.452-.05.682-.293c.212-.224.204-.644.204-.644s-.03-1.968.902-2.258c.917-.285 2.096 1.902 3.344 2.744.944.637 1.661.497 1.661.497l3.34-.046s1.746-.106.918-1.454z"/></svg>