<?xml version="1.0" encoding="utf-8"?><svg width="57" height="88" xmlns="http://www.w3.org/2000/svg" viewBox="0 0 57 88"><mask id="ga"><path d="M56.89 26.944l-5.335-12.15V1.293c0-.943-1.013-1.578-1.847-1.155l-4.874 2.466L39.96.137a1.262 1.262 0 00-1.141 0l-4.874 2.466L29.07.137a1.262 1.262 0 00-1.142 0l-4.874 2.466L18.181.137a1.261 1.261 0 00-1.141 0l-4.874 2.466L7.292.137C6.457-.286 5.445.35 5.445 1.292v13.502L.11 26.944c-.072.164-.11.345-.11.524v59.24C0 87.422.571 88 1.276 88h54.448c.705 0 1.276-.578 1.276-1.292v-59.24c0-.18-.037-.359-.11-.524zM7.997 3.38l3.598 1.821c.36.182.782.182 1.141 0l4.874-2.466 4.874 2.466c.36.182.783.182 1.142 0L28.5 2.736l4.874 2.466c.36.182.782.182 1.141 0l4.874-2.466 4.874 2.466c.36.182.783.182 1.142 0l3.598-1.82v10.395H7.997V3.381zM2.552 65.957h28.223l5.21 4.22-5.21 4.218H2.552v-8.438zM35.306 28.76h8.252v56.657H2.552v-8.439h28.67c.29 0 .571-.1.798-.282l6.805-5.511c.629-.51.629-1.508 0-2.017l-6.805-5.511a1.268 1.268 0 00-.798-.283H2.552V28.759h26.799c.704 0 1.276-.578 1.276-1.291 0-.714-.572-1.292-1.276-1.292H3.24l4.31-9.816h40.766l-4.31 9.816h-8.7c-.705 0-1.276.578-1.276 1.292 0 .713.571 1.291 1.276 1.291zm19.142 56.657H46.11V27.742l4.169-9.493 4.169 9.493v57.675z"/><path d="M23.055 41.33c-5.77 0-10.464 4.752-10.464 10.592 0 5.337 3.912 8.524 10.464 8.524 6.553 0 10.464-3.187 10.464-8.524 0-5.84-4.694-10.591-10.464-10.591zm0 16.533c-2.955 0-7.912-.772-7.912-5.941 0-4.416 3.55-8.008 7.912-8.008 4.363 0 7.912 3.592 7.912 8.008 0 5.17-4.957 5.941-7.912 5.941zM17.95 30.998c-2.608 0-4.338 3.265-4.338 5.425 0 2.421 1.946 4.391 4.339 4.391 2.392 0 4.338-1.97 4.338-4.391 0-2.16-1.73-5.425-4.338-5.425zm0 7.233a1.8 1.8 0 01-1.786-1.808c0-1.222 1.019-2.842 1.787-2.842s1.786 1.62 1.786 2.842a1.8 1.8 0 01-1.786 1.808zM28.16 30.998c-2.609 0-4.34 3.265-4.34 5.425 0 2.421 1.947 4.391 4.34 4.391 2.392 0 4.338-1.97 4.338-4.391 0-2.16-1.73-5.425-4.338-5.425zm0 7.233a1.8 1.8 0 01-1.787-1.808c0-1.222 1.019-2.842 1.787-2.842s1.786 1.62 1.786 2.842a1.8 1.8 0 01-1.787 1.808zM36.327 37.198c-2.608 0-4.34 3.265-4.34 5.424 0 2.422 1.947 4.392 4.34 4.392 2.392 0 4.339-1.97 4.339-4.392 0-2.16-1.731-5.424-4.34-5.424zm0 7.233a1.8 1.8 0 01-1.787-1.809c0-1.221 1.019-2.841 1.787-2.841s1.786 1.62 1.786 2.841a1.8 1.8 0 01-1.786 1.809zM9.783 37.198c-2.608 0-4.338 3.265-4.338 5.424 0 2.422 1.946 4.392 4.338 4.392 2.393 0 4.34-1.97 4.34-4.392 0-2.16-1.731-5.424-4.34-5.424zm0 7.233a1.8 1.8 0 01-1.786-1.809c0-1.221 1.018-2.841 1.786-2.841.769 0 1.787 1.62 1.787 2.841a1.8 1.8 0 01-1.787 1.809zM12.166 79.906H6.72c-.705 0-1.276.578-1.276 1.292 0 .713.571 1.291 1.276 1.291h5.445c.704 0 1.276-.578 1.276-1.291 0-.714-.572-1.292-1.276-1.292zM29.861 79.906h-12.25c-.705 0-1.277.578-1.277 1.292 0 .713.572 1.291 1.276 1.291h12.251c.705 0 1.276-.578 1.276-1.291 0-.714-.571-1.292-1.276-1.292zM16.25 68.885H6.72c-.704 0-1.275.578-1.275 1.291 0 .714.571 1.292 1.276 1.292h9.528c.705 0 1.276-.578 1.276-1.292 0-.713-.57-1.291-1.276-1.291zM28.5 68.885h-6.806c-.705 0-1.276.578-1.276 1.291 0 .714.571 1.292 1.276 1.292H28.5c.705 0 1.276-.578 1.276-1.292 0-.713-.571-1.291-1.276-1.291z"/></mask><path d="M56.89 26.944l-5.335-12.15V1.293c0-.943-1.013-1.578-1.847-1.155l-4.874 2.466L39.96.137a1.262 1.262 0 00-1.141 0l-4.874 2.466L29.07.137a1.262 1.262 0 00-1.142 0l-4.874 2.466L18.181.137a1.261 1.261 0 00-1.141 0l-4.874 2.466L7.292.137C6.457-.286 5.445.35 5.445 1.292v13.502L.11 26.944c-.072.164-.11.345-.11.524v59.24C0 87.422.571 88 1.276 88h54.448c.705 0 1.276-.578 1.276-1.292v-59.24c0-.18-.037-.359-.11-.524zM7.997 3.38l3.598 1.821c.36.182.782.182 1.141 0l4.874-2.466 4.874 2.466c.36.182.783.182 1.142 0L28.5 2.736l4.874 2.466c.36.182.782.182 1.141 0l4.874-2.466 4.874 2.466c.36.182.783.182 1.142 0l3.598-1.82v10.395H7.997V3.381zM2.552 65.957h28.223l5.21 4.22-5.21 4.218H2.552v-8.438zM35.306 28.76h8.252v56.657H2.552v-8.439h28.67c.29 0 .571-.1.798-.282l6.805-5.511c.629-.51.629-1.508 0-2.017l-6.805-5.511a1.268 1.268 0 00-.798-.283H2.552V28.759h26.799c.704 0 1.276-.578 1.276-1.291 0-.714-.572-1.292-1.276-1.292H3.24l4.31-9.816h40.766l-4.31 9.816h-8.7c-.705 0-1.276.578-1.276 1.292 0 .713.571 1.291 1.276 1.291zm19.142 56.657H46.11V27.742l4.169-9.493 4.169 9.493v57.675z"/><path d="M23.055 41.33c-5.77 0-10.464 4.752-10.464 10.592 0 5.337 3.912 8.524 10.464 8.524 6.553 0 10.464-3.187 10.464-8.524 0-5.84-4.694-10.591-10.464-10.591zm0 16.533c-2.955 0-7.912-.772-7.912-5.941 0-4.416 3.55-8.008 7.912-8.008 4.363 0 7.912 3.592 7.912 8.008 0 5.17-4.957 5.941-7.912 5.941zM17.95 30.998c-2.608 0-4.338 3.265-4.338 5.425 0 2.421 1.946 4.391 4.339 4.391 2.392 0 4.338-1.97 4.338-4.391 0-2.16-1.73-5.425-4.338-5.425zm0 7.233a1.8 1.8 0 01-1.786-1.808c0-1.222 1.019-2.842 1.787-2.842s1.786 1.62 1.786 2.842a1.8 1.8 0 01-1.786 1.808zM28.16 30.998c-2.609 0-4.34 3.265-4.34 5.425 0 2.421 1.947 4.391 4.34 4.391 2.392 0 4.338-1.97 4.338-4.391 0-2.16-1.73-5.425-4.338-5.425zm0 7.233a1.8 1.8 0 01-1.787-1.808c0-1.222 1.019-2.842 1.787-2.842s1.786 1.62 1.786 2.842a1.8 1.8 0 01-1.787 1.808zM36.327 37.198c-2.608 0-4.34 3.265-4.34 5.424 0 2.422 1.947 4.392 4.34 4.392 2.392 0 4.339-1.97 4.339-4.392 0-2.16-1.731-5.424-4.34-5.424zm0 7.233a1.8 1.8 0 01-1.787-1.809c0-1.221 1.019-2.841 1.787-2.841s1.786 1.62 1.786 2.841a1.8 1.8 0 01-1.786 1.809zM9.783 37.198c-2.608 0-4.338 3.265-4.338 5.424 0 2.422 1.946 4.392 4.338 4.392 2.393 0 4.34-1.97 4.34-4.392 0-2.16-1.731-5.424-4.34-5.424zm0 7.233a1.8 1.8 0 01-1.786-1.809c0-1.221 1.018-2.841 1.786-2.841.769 0 1.787 1.62 1.787 2.841a1.8 1.8 0 01-1.787 1.809zM12.166 79.906H6.72c-.705 0-1.276.578-1.276 1.292 0 .713.571 1.291 1.276 1.291h5.445c.704 0 1.276-.578 1.276-1.291 0-.714-.572-1.292-1.276-1.292zM29.861 79.906h-12.25c-.705 0-1.277.578-1.277 1.292 0 .713.572 1.291 1.276 1.291h12.251c.705 0 1.276-.578 1.276-1.291 0-.714-.571-1.292-1.276-1.292zM16.25 68.885H6.72c-.704 0-1.275.578-1.275 1.291 0 .714.571 1.292 1.276 1.292h9.528c.705 0 1.276-.578 1.276-1.292 0-.713-.57-1.291-1.276-1.291zM28.5 68.885h-6.806c-.705 0-1.276.578-1.276 1.291 0 .714.571 1.292 1.276 1.292H28.5c.705 0 1.276-.578 1.276-1.292 0-.713-.571-1.291-1.276-1.291z"/><path d="M56.89 26.944l-5.335-12.15V1.293c0-.943-1.013-1.578-1.847-1.155l-4.874 2.466L39.96.137a1.262 1.262 0 00-1.141 0l-4.874 2.466L29.07.137a1.262 1.262 0 00-1.142 0l-4.874 2.466L18.181.137a1.261 1.261 0 00-1.141 0l-4.874 2.466L7.292.137C6.457-.286 5.445.35 5.445 1.292v13.502L.11 26.944c-.072.164-.11.345-.11.524v59.24C0 87.422.571 88 1.276 88h54.448c.705 0 1.276-.578 1.276-1.292v-59.24c0-.18-.037-.359-.11-.524zM7.997 3.38l3.598 1.821c.36.182.782.182 1.141 0l4.874-2.466 4.874 2.466c.36.182.783.182 1.142 0L28.5 2.736l4.874 2.466c.36.182.782.182 1.141 0l4.874-2.466 4.874 2.466c.36.182.783.182 1.142 0l3.598-1.82v10.395H7.997V3.381zM2.552 65.957h28.223l5.21 4.22-5.21 4.218H2.552v-8.438zM35.306 28.76h8.252v56.657H2.552v-8.439h28.67c.29 0 .571-.1.798-.282l6.805-5.511c.629-.51.629-1.508 0-2.017l-6.805-5.511a1.268 1.268 0 00-.798-.283H2.552V28.759h26.799c.704 0 1.276-.578 1.276-1.291 0-.714-.572-1.292-1.276-1.292H3.24l4.31-9.816h40.766l-4.31 9.816h-8.7c-.705 0-1.276.578-1.276 1.292 0 .713.571 1.291 1.276 1.291zm19.142 56.657H46.11V27.742l4.169-9.493 4.169 9.493v57.675z" mask="url(#ga)"/><path d="M23.055 41.33c-5.77 0-10.464 4.752-10.464 10.592 0 5.337 3.912 8.524 10.464 8.524 6.553 0 10.464-3.187 10.464-8.524 0-5.84-4.694-10.591-10.464-10.591zm0 16.533c-2.955 0-7.912-.772-7.912-5.941 0-4.416 3.55-8.008 7.912-8.008 4.363 0 7.912 3.592 7.912 8.008 0 5.17-4.957 5.941-7.912 5.941zM17.95 30.998c-2.608 0-4.338 3.265-4.338 5.425 0 2.421 1.946 4.391 4.339 4.391 2.392 0 4.338-1.97 4.338-4.391 0-2.16-1.73-5.425-4.338-5.425zm0 7.233a1.8 1.8 0 01-1.786-1.808c0-1.222 1.019-2.842 1.787-2.842s1.786 1.62 1.786 2.842a1.8 1.8 0 01-1.786 1.808zM28.16 30.998c-2.609 0-4.34 3.265-4.34 5.425 0 2.421 1.947 4.391 4.34 4.391 2.392 0 4.338-1.97 4.338-4.391 0-2.16-1.73-5.425-4.338-5.425zm0 7.233a1.8 1.8 0 01-1.787-1.808c0-1.222 1.019-2.842 1.787-2.842s1.786 1.62 1.786 2.842a1.8 1.8 0 01-1.787 1.808zM36.327 37.198c-2.608 0-4.34 3.265-4.34 5.424 0 2.422 1.947 4.392 4.34 4.392 2.392 0 4.339-1.97 4.339-4.392 0-2.16-1.731-5.424-4.34-5.424zm0 7.233a1.8 1.8 0 01-1.787-1.809c0-1.221 1.019-2.841 1.787-2.841s1.786 1.62 1.786 2.841a1.8 1.8 0 01-1.786 1.809zM9.783 37.198c-2.608 0-4.338 3.265-4.338 5.424 0 2.422 1.946 4.392 4.338 4.392 2.393 0 4.34-1.97 4.34-4.392 0-2.16-1.731-5.424-4.34-5.424zm0 7.233a1.8 1.8 0 01-1.786-1.809c0-1.221 1.018-2.841 1.786-2.841.769 0 1.787 1.62 1.787 2.841a1.8 1.8 0 01-1.787 1.809zM12.166 79.906H6.72c-.705 0-1.276.578-1.276 1.292 0 .713.571 1.291 1.276 1.291h5.445c.704 0 1.276-.578 1.276-1.291 0-.714-.572-1.292-1.276-1.292zM29.861 79.906h-12.25c-.705 0-1.277.578-1.277 1.292 0 .713.572 1.291 1.276 1.291h12.251c.705 0 1.276-.578 1.276-1.291 0-.714-.571-1.292-1.276-1.292zM16.25 68.885H6.72c-.704 0-1.275.578-1.275 1.291 0 .714.571 1.292 1.276 1.292h9.528c.705 0 1.276-.578 1.276-1.292 0-.713-.57-1.291-1.276-1.291zM28.5 68.885h-6.806c-.705 0-1.276.578-1.276 1.291 0 .714.571 1.292 1.276 1.292H28.5c.705 0 1.276-.578 1.276-1.292 0-.713-.571-1.291-1.276-1.291z" mask="url(#ga)"/></svg>