<?xml version="1.0" encoding="utf-8"?><svg width="80" height="88" xmlns="http://www.w3.org/2000/svg" viewBox="0 0 80 88"><mask id="ha"><path d="M10.878 19.288C4.88 19.288 0 24.193 0 30.223c0 5.593 4.199 10.215 9.593 10.857v8.43c0 .714.575 1.292 1.285 1.292s1.285-.578 1.285-1.291V41.08c5.394-.642 9.593-5.264 9.593-10.857 0-6.03-4.88-10.935-10.878-10.935zm0 19.287c-4.581 0-8.308-3.747-8.308-8.352s3.727-8.352 8.308-8.352c4.581 0 8.308 3.747 8.308 8.352s-3.727 8.352-8.308 8.352z"/><path d="M10.878 24.799c-2.976 0-5.396 2.433-5.396 5.424 0 2.991 2.42 5.425 5.396 5.425 2.975 0 5.396-2.434 5.396-5.425 0-2.99-2.42-5.424-5.396-5.424zm0 8.266a2.837 2.837 0 01-2.827-2.842 2.837 2.837 0 012.827-2.841 2.837 2.837 0 012.826 2.841 2.837 2.837 0 01-2.826 2.842zM78.715 30.998h-.771V8.868c0-3.75-3.036-6.801-6.767-6.801h-2.826v-.775C68.35.578 67.776 0 67.066 0H63.64c-1.842 0-3.34 1.506-3.34 3.358s1.498 3.358 3.34 3.358h3.426c.71 0 1.285-.578 1.285-1.291V4.65h2.826c2.315 0 4.197 1.892 4.197 4.219v22.129h-.77c-.71 0-1.285.578-1.285 1.291v2.067c0 5.745-4.65 10.419-10.364 10.419H46.509c-5.714 0-10.364-4.674-10.364-10.42V32.29c0-.713-.575-1.291-1.284-1.291h-.771V8.868c0-2.325 1.883-4.218 4.197-4.218h2.826v.775c0 .713.575 1.291 1.285 1.291h3.426c1.842 0 3.34-1.506 3.34-3.358S47.667 0 45.825 0h-3.426c-.71 0-1.285.578-1.285 1.292v.775h-2.826c-3.731 0-6.767 3.051-6.767 6.802v22.129h-.77c-.71 0-1.286.578-1.286 1.292v2.066c0 9.448 7.647 17.135 17.045 17.135h4.883v6.286c0 .713.575 1.291 1.284 1.291h.771v6.975c0 10.683-8.645 19.374-19.272 19.374h-2.74c-10.627 0-19.272-8.691-19.272-19.374V55.768c0-.714-.575-1.292-1.285-1.292s-1.285.578-1.285 1.292v10.275C9.593 78.15 19.391 88 31.435 88h2.74c12.044 0 21.842-9.85 21.842-21.957v-6.975h.771c.71 0 1.285-.578 1.285-1.291V51.49h4.882C72.353 51.491 80 43.804 80 34.356V32.29c0-.714-.576-1.292-1.285-1.292zM65.78 4.133H63.64a.774.774 0 01-.77-.775c0-.427.345-.775.77-.775h2.141v1.55zm-22.098-1.55h2.141c.425 0 .771.348.771.775a.774.774 0 01-.77.775h-2.142v-1.55zM77.43 34.356c0 8.024-6.493 14.552-14.475 14.552h-6.167c-.71 0-1.285.578-1.285 1.291v6.286h-1.542V50.2c0-.714-.575-1.292-1.285-1.292H46.51c-7.982 0-14.476-6.528-14.476-14.552v-.775h1.542v.775c0 7.17 5.802 13.002 12.934 13.002h16.445c7.132 0 12.934-5.832 12.934-13.002v-.775h1.541v.775z"/><path d="M54.732 20.665c-5.809 0-10.535 4.752-10.535 10.591 0 5.338 3.938 8.525 10.535 8.525 6.597 0 10.535-3.187 10.535-8.525 0-5.84-4.726-10.59-10.535-10.59zm0 16.533c-2.975 0-7.966-.772-7.966-5.942 0-4.415 3.574-8.008 7.966-8.008s7.966 3.593 7.966 8.008c0 5.17-4.991 5.942-7.966 5.942zM49.593 10.333c-2.626 0-4.368 3.265-4.368 5.424 0 2.422 1.96 4.392 4.368 4.392 2.409 0 4.368-1.97 4.368-4.392 0-2.16-1.742-5.424-4.368-5.424zm0 7.233a1.806 1.806 0 01-1.799-1.809c0-1.221 1.026-2.841 1.799-2.841.773 0 1.799 1.62 1.799 2.841 0 .997-.807 1.809-1.799 1.809zM59.871 10.333c-2.626 0-4.368 3.265-4.368 5.424 0 2.422 1.96 4.392 4.368 4.392 2.409 0 4.369-1.97 4.369-4.392 0-2.16-1.743-5.424-4.369-5.424zm0 7.233a1.806 1.806 0 01-1.799-1.809c0-1.221 1.026-2.841 1.8-2.841.773 0 1.798 1.62 1.798 2.841 0 .997-.807 1.809-1.799 1.809zM68.094 16.532c-2.626 0-4.368 3.265-4.368 5.425 0 2.422 1.96 4.391 4.368 4.391 2.409 0 4.368-1.97 4.368-4.391 0-2.16-1.742-5.425-4.368-5.425zm0 7.233a1.806 1.806 0 01-1.799-1.808c0-1.222 1.026-2.842 1.799-2.842.773 0 1.799 1.62 1.799 2.842 0 .997-.807 1.808-1.8 1.808zM41.37 16.532c-2.626 0-4.368 3.265-4.368 5.425 0 2.422 1.96 4.391 4.368 4.391 2.41 0 4.369-1.97 4.369-4.391 0-2.16-1.743-5.425-4.369-5.425zm0 7.233a1.806 1.806 0 01-1.798-1.808c0-1.222 1.025-2.842 1.798-2.842.774 0 1.8 1.62 1.8 2.842-.001.997-.808 1.808-1.8 1.808z"/></mask><path d="M10.878 19.288C4.88 19.288 0 24.193 0 30.223c0 5.593 4.199 10.215 9.593 10.857v8.43c0 .714.575 1.292 1.285 1.292s1.285-.578 1.285-1.291V41.08c5.394-.642 9.593-5.264 9.593-10.857 0-6.03-4.88-10.935-10.878-10.935zm0 19.287c-4.581 0-8.308-3.747-8.308-8.352s3.727-8.352 8.308-8.352c4.581 0 8.308 3.747 8.308 8.352s-3.727 8.352-8.308 8.352z"/><path d="M10.878 24.799c-2.976 0-5.396 2.433-5.396 5.424 0 2.991 2.42 5.425 5.396 5.425 2.975 0 5.396-2.434 5.396-5.425 0-2.99-2.42-5.424-5.396-5.424zm0 8.266a2.837 2.837 0 01-2.827-2.842 2.837 2.837 0 012.827-2.841 2.837 2.837 0 012.826 2.841 2.837 2.837 0 01-2.826 2.842zM78.715 30.998h-.771V8.868c0-3.75-3.036-6.801-6.767-6.801h-2.826v-.775C68.35.578 67.776 0 67.066 0H63.64c-1.842 0-3.34 1.506-3.34 3.358s1.498 3.358 3.34 3.358h3.426c.71 0 1.285-.578 1.285-1.291V4.65h2.826c2.315 0 4.197 1.892 4.197 4.219v22.129h-.77c-.71 0-1.285.578-1.285 1.291v2.067c0 5.745-4.65 10.419-10.364 10.419H46.509c-5.714 0-10.364-4.674-10.364-10.42V32.29c0-.713-.575-1.291-1.284-1.291h-.771V8.868c0-2.325 1.883-4.218 4.197-4.218h2.826v.775c0 .713.575 1.291 1.285 1.291h3.426c1.842 0 3.34-1.506 3.34-3.358S47.667 0 45.825 0h-3.426c-.71 0-1.285.578-1.285 1.292v.775h-2.826c-3.731 0-6.767 3.051-6.767 6.802v22.129h-.77c-.71 0-1.286.578-1.286 1.292v2.066c0 9.448 7.647 17.135 17.045 17.135h4.883v6.286c0 .713.575 1.291 1.284 1.291h.771v6.975c0 10.683-8.645 19.374-19.272 19.374h-2.74c-10.627 0-19.272-8.691-19.272-19.374V55.768c0-.714-.575-1.292-1.285-1.292s-1.285.578-1.285 1.292v10.275C9.593 78.15 19.391 88 31.435 88h2.74c12.044 0 21.842-9.85 21.842-21.957v-6.975h.771c.71 0 1.285-.578 1.285-1.291V51.49h4.882C72.353 51.491 80 43.804 80 34.356V32.29c0-.714-.576-1.292-1.285-1.292zM65.78 4.133H63.64a.774.774 0 01-.77-.775c0-.427.345-.775.77-.775h2.141v1.55zm-22.098-1.55h2.141c.425 0 .771.348.771.775a.774.774 0 01-.77.775h-2.142v-1.55zM77.43 34.356c0 8.024-6.493 14.552-14.475 14.552h-6.167c-.71 0-1.285.578-1.285 1.291v6.286h-1.542V50.2c0-.714-.575-1.292-1.285-1.292H46.51c-7.982 0-14.476-6.528-14.476-14.552v-.775h1.542v.775c0 7.17 5.802 13.002 12.934 13.002h16.445c7.132 0 12.934-5.832 12.934-13.002v-.775h1.541v.775z"/><path d="M54.732 20.665c-5.809 0-10.535 4.752-10.535 10.591 0 5.338 3.938 8.525 10.535 8.525 6.597 0 10.535-3.187 10.535-8.525 0-5.84-4.726-10.59-10.535-10.59zm0 16.533c-2.975 0-7.966-.772-7.966-5.942 0-4.415 3.574-8.008 7.966-8.008s7.966 3.593 7.966 8.008c0 5.17-4.991 5.942-7.966 5.942zM49.593 10.333c-2.626 0-4.368 3.265-4.368 5.424 0 2.422 1.96 4.392 4.368 4.392 2.409 0 4.368-1.97 4.368-4.392 0-2.16-1.742-5.424-4.368-5.424zm0 7.233a1.806 1.806 0 01-1.799-1.809c0-1.221 1.026-2.841 1.799-2.841.773 0 1.799 1.62 1.799 2.841 0 .997-.807 1.809-1.799 1.809zM59.871 10.333c-2.626 0-4.368 3.265-4.368 5.424 0 2.422 1.96 4.392 4.368 4.392 2.409 0 4.369-1.97 4.369-4.392 0-2.16-1.743-5.424-4.369-5.424zm0 7.233a1.806 1.806 0 01-1.799-1.809c0-1.221 1.026-2.841 1.8-2.841.773 0 1.798 1.62 1.798 2.841 0 .997-.807 1.809-1.799 1.809zM68.094 16.532c-2.626 0-4.368 3.265-4.368 5.425 0 2.422 1.96 4.391 4.368 4.391 2.409 0 4.368-1.97 4.368-4.391 0-2.16-1.742-5.425-4.368-5.425zm0 7.233a1.806 1.806 0 01-1.799-1.808c0-1.222 1.026-2.842 1.799-2.842.773 0 1.799 1.62 1.799 2.842 0 .997-.807 1.808-1.8 1.808zM41.37 16.532c-2.626 0-4.368 3.265-4.368 5.425 0 2.422 1.96 4.391 4.368 4.391 2.41 0 4.369-1.97 4.369-4.391 0-2.16-1.743-5.425-4.369-5.425zm0 7.233a1.806 1.806 0 01-1.798-1.808c0-1.222 1.025-2.842 1.798-2.842.774 0 1.8 1.62 1.8 2.842-.001.997-.808 1.808-1.8 1.808z"/><path d="M10.878 19.288C4.88 19.288 0 24.193 0 30.223c0 5.593 4.199 10.215 9.593 10.857v8.43c0 .714.575 1.292 1.285 1.292s1.285-.578 1.285-1.291V41.08c5.394-.642 9.593-5.264 9.593-10.857 0-6.03-4.88-10.935-10.878-10.935zm0 19.287c-4.581 0-8.308-3.747-8.308-8.352s3.727-8.352 8.308-8.352c4.581 0 8.308 3.747 8.308 8.352s-3.727 8.352-8.308 8.352z" mask="url(#ha)"/><path d="M10.878 24.799c-2.976 0-5.396 2.433-5.396 5.424 0 2.991 2.42 5.425 5.396 5.425 2.975 0 5.396-2.434 5.396-5.425 0-2.99-2.42-5.424-5.396-5.424zm0 8.266a2.837 2.837 0 01-2.827-2.842 2.837 2.837 0 012.827-2.841 2.837 2.837 0 012.826 2.841 2.837 2.837 0 01-2.826 2.842zM78.715 30.998h-.771V8.868c0-3.75-3.036-6.801-6.767-6.801h-2.826v-.775C68.35.578 67.776 0 67.066 0H63.64c-1.842 0-3.34 1.506-3.34 3.358s1.498 3.358 3.34 3.358h3.426c.71 0 1.285-.578 1.285-1.291V4.65h2.826c2.315 0 4.197 1.892 4.197 4.219v22.129h-.77c-.71 0-1.285.578-1.285 1.291v2.067c0 5.745-4.65 10.419-10.364 10.419H46.509c-5.714 0-10.364-4.674-10.364-10.42V32.29c0-.713-.575-1.291-1.284-1.291h-.771V8.868c0-2.325 1.883-4.218 4.197-4.218h2.826v.775c0 .713.575 1.291 1.285 1.291h3.426c1.842 0 3.34-1.506 3.34-3.358S47.667 0 45.825 0h-3.426c-.71 0-1.285.578-1.285 1.292v.775h-2.826c-3.731 0-6.767 3.051-6.767 6.802v22.129h-.77c-.71 0-1.286.578-1.286 1.292v2.066c0 9.448 7.647 17.135 17.045 17.135h4.883v6.286c0 .713.575 1.291 1.284 1.291h.771v6.975c0 10.683-8.645 19.374-19.272 19.374h-2.74c-10.627 0-19.272-8.691-19.272-19.374V55.768c0-.714-.575-1.292-1.285-1.292s-1.285.578-1.285 1.292v10.275C9.593 78.15 19.391 88 31.435 88h2.74c12.044 0 21.842-9.85 21.842-21.957v-6.975h.771c.71 0 1.285-.578 1.285-1.291V51.49h4.882C72.353 51.491 80 43.804 80 34.356V32.29c0-.714-.576-1.292-1.285-1.292zM65.78 4.133H63.64a.774.774 0 01-.77-.775c0-.427.345-.775.77-.775h2.141v1.55zm-22.098-1.55h2.141c.425 0 .771.348.771.775a.774.774 0 01-.77.775h-2.142v-1.55zM77.43 34.356c0 8.024-6.493 14.552-14.475 14.552h-6.167c-.71 0-1.285.578-1.285 1.291v6.286h-1.542V50.2c0-.714-.575-1.292-1.285-1.292H46.51c-7.982 0-14.476-6.528-14.476-14.552v-.775h1.542v.775c0 7.17 5.802 13.002 12.934 13.002h16.445c7.132 0 12.934-5.832 12.934-13.002v-.775h1.541v.775z" mask="url(#ha)"/><path d="M54.732 20.665c-5.809 0-10.535 4.752-10.535 10.591 0 5.338 3.938 8.525 10.535 8.525 6.597 0 10.535-3.187 10.535-8.525 0-5.84-4.726-10.59-10.535-10.59zm0 16.533c-2.975 0-7.966-.772-7.966-5.942 0-4.415 3.574-8.008 7.966-8.008s7.966 3.593 7.966 8.008c0 5.17-4.991 5.942-7.966 5.942zM49.593 10.333c-2.626 0-4.368 3.265-4.368 5.424 0 2.422 1.96 4.392 4.368 4.392 2.409 0 4.368-1.97 4.368-4.392 0-2.16-1.742-5.424-4.368-5.424zm0 7.233a1.806 1.806 0 01-1.799-1.809c0-1.221 1.026-2.841 1.799-2.841.773 0 1.799 1.62 1.799 2.841 0 .997-.807 1.809-1.799 1.809zM59.871 10.333c-2.626 0-4.368 3.265-4.368 5.424 0 2.422 1.96 4.392 4.368 4.392 2.409 0 4.369-1.97 4.369-4.392 0-2.16-1.743-5.424-4.369-5.424zm0 7.233a1.806 1.806 0 01-1.799-1.809c0-1.221 1.026-2.841 1.8-2.841.773 0 1.798 1.62 1.798 2.841 0 .997-.807 1.809-1.799 1.809zM68.094 16.532c-2.626 0-4.368 3.265-4.368 5.425 0 2.422 1.96 4.391 4.368 4.391 2.409 0 4.368-1.97 4.368-4.391 0-2.16-1.742-5.425-4.368-5.425zm0 7.233a1.806 1.806 0 01-1.799-1.808c0-1.222 1.026-2.842 1.799-2.842.773 0 1.799 1.62 1.799 2.842 0 .997-.807 1.808-1.8 1.808zM41.37 16.532c-2.626 0-4.368 3.265-4.368 5.425 0 2.422 1.96 4.391 4.368 4.391 2.41 0 4.369-1.97 4.369-4.391 0-2.16-1.743-5.425-4.369-5.425zm0 7.233a1.806 1.806 0 01-1.798-1.808c0-1.222 1.025-2.842 1.798-2.842.774 0 1.8 1.62 1.8 2.842-.001.997-.808 1.808-1.8 1.808z" mask="url(#ha)"/></svg>