<?xml version="1.0" encoding="utf-8"?><svg width="80" height="71" xmlns="http://www.w3.org/2000/svg" viewBox="0 0 80 71"><mask id="ea"><path d="M32.411 31.209c-5.297 0-9.606 4.305-9.606 9.596 0 4.837 3.591 7.725 9.606 7.725s9.606-2.888 9.606-7.725c0-5.291-4.309-9.596-9.606-9.596zm0 14.98c-2.712 0-7.263-.7-7.263-5.384 0-4.001 3.258-7.256 7.263-7.256s7.263 3.255 7.263 7.256c0 4.684-4.55 5.384-7.263 5.384zM27.725 21.846c-2.394 0-3.983 2.959-3.983 4.916a3.986 3.986 0 003.983 3.979 3.986 3.986 0 003.983-3.98c0-1.956-1.588-4.915-3.983-4.915zm0 6.554c-.904 0-1.64-.735-1.64-1.639 0-1.107.935-2.575 1.64-2.575.705 0 1.64 1.468 1.64 2.575 0 .904-.735 1.639-1.64 1.639zM37.097 21.846c-2.395 0-3.983 2.959-3.983 4.916a3.986 3.986 0 003.983 3.979 3.986 3.986 0 003.983-3.98c0-1.956-1.588-4.915-3.983-4.915zm0 6.554c-.904 0-1.64-.735-1.64-1.639 0-1.107.935-2.575 1.64-2.575.705 0 1.64 1.468 1.64 2.575 0 .904-.736 1.639-1.64 1.639zM44.594 27.464c-2.394 0-3.983 2.958-3.983 4.915a3.986 3.986 0 003.983 3.98 3.985 3.985 0 003.984-3.98c0-1.957-1.589-4.915-3.984-4.915zm0 6.553c-.904 0-1.64-.735-1.64-1.638 0-1.107.935-2.575 1.64-2.575.706 0 1.64 1.468 1.64 2.575 0 .903-.735 1.638-1.64 1.638zM20.228 27.464c-2.395 0-3.984 2.958-3.984 4.915a3.986 3.986 0 003.984 3.98 3.985 3.985 0 003.983-3.98c0-1.957-1.589-4.915-3.983-4.915zm0 6.553c-.905 0-1.64-.735-1.64-1.638 0-1.107.934-2.575 1.64-2.575.705 0 1.64 1.468 1.64 2.575 0 .903-.736 1.638-1.64 1.638z"/><path d="M34.91 38.699h-1.327v-1.327a1.17 1.17 0 00-2.343 0V38.7h-1.328a1.17 1.17 0 100 2.34h1.328v1.327a1.17 1.17 0 002.343 0v-1.327h1.327a1.17 1.17 0 100-2.34z"/><path d="M46.502 1.715A35.638 35.638 0 0035.535 0C26.043 0 17.12 3.693 10.408 10.398S0 26.018 0 35.5c0 9.482 3.696 18.397 10.408 25.102C17.12 67.307 26.043 71 35.535 71a1.17 1.17 0 100-2.34c-8.866 0-17.201-3.45-23.47-9.713-6.27-6.263-9.722-14.59-9.722-23.447s3.453-17.184 9.722-23.447C18.334 5.79 26.669 2.34 35.535 2.34c3.508 0 6.955.538 10.247 1.601a1.183 1.183 0 001.475-.753 1.181 1.181 0 00-.755-1.474z"/><path d="M79.71 32.084l-4.114-4.697a1.184 1.184 0 00-1.653-.11l-3.277 2.864a35.492 35.492 0 00-10.004-19.744 35.635 35.635 0 00-8.626-6.357 1.183 1.183 0 00-1.582.492 1.181 1.181 0 00.492 1.58 33.303 33.303 0 018.06 5.94c5.596 5.592 8.914 12.692 9.593 20.532.08.935 1.23 1.4 1.938.78l4.067-3.555 2.571 2.936-9.115 7.968a1.973 1.973 0 01-2.571 0l-9.116-7.968 2.572-2.936 3.739 3.268c.79.69 2.057.023 1.934-1.018C62.886 17.341 50.381 6.242 35.535 6.242 19.386 6.242 6.248 19.367 6.248 35.5s13.138 29.258 29.287 29.258a1.17 1.17 0 100-2.34c-14.857 0-26.944-12.076-26.944-26.918 0-14.843 12.087-26.918 26.944-26.918 12.555 0 23.289 8.628 26.18 20.538l-2.109-1.843a1.184 1.184 0 00-1.653.11l-4.114 4.698a1.17 1.17 0 00.11 1.651l9.997 8.738c1.6 1.398 4.058 1.398 5.657 0l9.997-8.738a1.17 1.17 0 00.11-1.651z"/><path d="M54.904 66.787h-8.696c3.873-2.88 9.867-8.236 9.867-13.81 0-4.087-3.328-7.412-7.42-7.412-4.09 0-7.419 3.325-7.419 7.412a1.17 1.17 0 002.343 0 5.08 5.08 0 015.077-5.072 5.08 5.08 0 015.076 5.072c0 6.739-11.808 13.905-11.927 13.976-.46.276-.676.847-.514 1.358.153.48.612.816 1.117.816h12.495a1.17 1.17 0 100-2.34zM73.647 61.793H71.07V46.735c0-.48-.304-.922-.753-1.093a1.183 1.183 0 00-1.347.38L56.474 62.25c-.581.755-.023 1.884.929 1.884h11.324v3.823a1.17 1.17 0 002.343 0v-3.823h2.577a1.17 1.17 0 100-2.34zm-4.92 0h-8.945l8.945-11.617v11.617z"/></mask><path d="M32.411 31.209c-5.297 0-9.606 4.305-9.606 9.596 0 4.837 3.591 7.725 9.606 7.725s9.606-2.888 9.606-7.725c0-5.291-4.309-9.596-9.606-9.596zm0 14.98c-2.712 0-7.263-.7-7.263-5.384 0-4.001 3.258-7.256 7.263-7.256s7.263 3.255 7.263 7.256c0 4.684-4.55 5.384-7.263 5.384zM27.725 21.846c-2.394 0-3.983 2.959-3.983 4.916a3.986 3.986 0 003.983 3.979 3.986 3.986 0 003.983-3.98c0-1.956-1.588-4.915-3.983-4.915zm0 6.554c-.904 0-1.64-.735-1.64-1.639 0-1.107.935-2.575 1.64-2.575.705 0 1.64 1.468 1.64 2.575 0 .904-.735 1.639-1.64 1.639zM37.097 21.846c-2.395 0-3.983 2.959-3.983 4.916a3.986 3.986 0 003.983 3.979 3.986 3.986 0 003.983-3.98c0-1.956-1.588-4.915-3.983-4.915zm0 6.554c-.904 0-1.64-.735-1.64-1.639 0-1.107.935-2.575 1.64-2.575.705 0 1.64 1.468 1.64 2.575 0 .904-.736 1.639-1.64 1.639zM44.594 27.464c-2.394 0-3.983 2.958-3.983 4.915a3.986 3.986 0 003.983 3.98 3.985 3.985 0 003.984-3.98c0-1.957-1.589-4.915-3.984-4.915zm0 6.553c-.904 0-1.64-.735-1.64-1.638 0-1.107.935-2.575 1.64-2.575.706 0 1.64 1.468 1.64 2.575 0 .903-.735 1.638-1.64 1.638zM20.228 27.464c-2.395 0-3.984 2.958-3.984 4.915a3.986 3.986 0 003.984 3.98 3.985 3.985 0 003.983-3.98c0-1.957-1.589-4.915-3.983-4.915zm0 6.553c-.905 0-1.64-.735-1.64-1.638 0-1.107.934-2.575 1.64-2.575.705 0 1.64 1.468 1.64 2.575 0 .903-.736 1.638-1.64 1.638z"/><path d="M34.91 38.699h-1.327v-1.327a1.17 1.17 0 00-2.343 0V38.7h-1.328a1.17 1.17 0 100 2.34h1.328v1.327a1.17 1.17 0 002.343 0v-1.327h1.327a1.17 1.17 0 100-2.34z"/><path d="M46.502 1.715A35.638 35.638 0 0035.535 0C26.043 0 17.12 3.693 10.408 10.398S0 26.018 0 35.5c0 9.482 3.696 18.397 10.408 25.102C17.12 67.307 26.043 71 35.535 71a1.17 1.17 0 100-2.34c-8.866 0-17.201-3.45-23.47-9.713-6.27-6.263-9.722-14.59-9.722-23.447s3.453-17.184 9.722-23.447C18.334 5.79 26.669 2.34 35.535 2.34c3.508 0 6.955.538 10.247 1.601a1.183 1.183 0 001.475-.753 1.181 1.181 0 00-.755-1.474z"/><path d="M79.71 32.084l-4.114-4.697a1.184 1.184 0 00-1.653-.11l-3.277 2.864a35.492 35.492 0 00-10.004-19.744 35.635 35.635 0 00-8.626-6.357 1.183 1.183 0 00-1.582.492 1.181 1.181 0 00.492 1.58 33.303 33.303 0 018.06 5.94c5.596 5.592 8.914 12.692 9.593 20.532.08.935 1.23 1.4 1.938.78l4.067-3.555 2.571 2.936-9.115 7.968a1.973 1.973 0 01-2.571 0l-9.116-7.968 2.572-2.936 3.739 3.268c.79.69 2.057.023 1.934-1.018C62.886 17.341 50.381 6.242 35.535 6.242 19.386 6.242 6.248 19.367 6.248 35.5s13.138 29.258 29.287 29.258a1.17 1.17 0 100-2.34c-14.857 0-26.944-12.076-26.944-26.918 0-14.843 12.087-26.918 26.944-26.918 12.555 0 23.289 8.628 26.18 20.538l-2.109-1.843a1.184 1.184 0 00-1.653.11l-4.114 4.698a1.17 1.17 0 00.11 1.651l9.997 8.738c1.6 1.398 4.058 1.398 5.657 0l9.997-8.738a1.17 1.17 0 00.11-1.651z"/><path d="M54.904 66.787h-8.696c3.873-2.88 9.867-8.236 9.867-13.81 0-4.087-3.328-7.412-7.42-7.412-4.09 0-7.419 3.325-7.419 7.412a1.17 1.17 0 002.343 0 5.08 5.08 0 015.077-5.072 5.08 5.08 0 015.076 5.072c0 6.739-11.808 13.905-11.927 13.976-.46.276-.676.847-.514 1.358.153.48.612.816 1.117.816h12.495a1.17 1.17 0 100-2.34zM73.647 61.793H71.07V46.735c0-.48-.304-.922-.753-1.093a1.183 1.183 0 00-1.347.38L56.474 62.25c-.581.755-.023 1.884.929 1.884h11.324v3.823a1.17 1.17 0 002.343 0v-3.823h2.577a1.17 1.17 0 100-2.34zm-4.92 0h-8.945l8.945-11.617v11.617z"/><path d="M32.411 31.209c-5.297 0-9.606 4.305-9.606 9.596 0 4.837 3.591 7.725 9.606 7.725s9.606-2.888 9.606-7.725c0-5.291-4.309-9.596-9.606-9.596zm0 14.98c-2.712 0-7.263-.7-7.263-5.384 0-4.001 3.258-7.256 7.263-7.256s7.263 3.255 7.263 7.256c0 4.684-4.55 5.384-7.263 5.384zM27.725 21.846c-2.394 0-3.983 2.959-3.983 4.916a3.986 3.986 0 003.983 3.979 3.986 3.986 0 003.983-3.98c0-1.956-1.588-4.915-3.983-4.915zm0 6.554c-.904 0-1.64-.735-1.64-1.639 0-1.107.935-2.575 1.64-2.575.705 0 1.64 1.468 1.64 2.575 0 .904-.735 1.639-1.64 1.639zM37.097 21.846c-2.395 0-3.983 2.959-3.983 4.916a3.986 3.986 0 003.983 3.979 3.986 3.986 0 003.983-3.98c0-1.956-1.588-4.915-3.983-4.915zm0 6.554c-.904 0-1.64-.735-1.64-1.639 0-1.107.935-2.575 1.64-2.575.705 0 1.64 1.468 1.64 2.575 0 .904-.736 1.639-1.64 1.639zM44.594 27.464c-2.394 0-3.983 2.958-3.983 4.915a3.986 3.986 0 003.983 3.98 3.985 3.985 0 003.984-3.98c0-1.957-1.589-4.915-3.984-4.915zm0 6.553c-.904 0-1.64-.735-1.64-1.638 0-1.107.935-2.575 1.64-2.575.706 0 1.64 1.468 1.64 2.575 0 .903-.735 1.638-1.64 1.638zM20.228 27.464c-2.395 0-3.984 2.958-3.984 4.915a3.986 3.986 0 003.984 3.98 3.985 3.985 0 003.983-3.98c0-1.957-1.589-4.915-3.983-4.915zm0 6.553c-.905 0-1.64-.735-1.64-1.638 0-1.107.934-2.575 1.64-2.575.705 0 1.64 1.468 1.64 2.575 0 .903-.736 1.638-1.64 1.638z" mask="url(#ea)"/><path d="M34.91 38.699h-1.327v-1.327a1.17 1.17 0 00-2.343 0V38.7h-1.328a1.17 1.17 0 100 2.34h1.328v1.327a1.17 1.17 0 002.343 0v-1.327h1.327a1.17 1.17 0 100-2.34z" mask="url(#ea)"/><path d="M46.502 1.715A35.638 35.638 0 0035.535 0C26.043 0 17.12 3.693 10.408 10.398S0 26.018 0 35.5c0 9.482 3.696 18.397 10.408 25.102C17.12 67.307 26.043 71 35.535 71a1.17 1.17 0 100-2.34c-8.866 0-17.201-3.45-23.47-9.713-6.27-6.263-9.722-14.59-9.722-23.447s3.453-17.184 9.722-23.447C18.334 5.79 26.669 2.34 35.535 2.34c3.508 0 6.955.538 10.247 1.601a1.183 1.183 0 001.475-.753 1.181 1.181 0 00-.755-1.474z" mask="url(#ea)"/><path d="M79.71 32.084l-4.114-4.697a1.184 1.184 0 00-1.653-.11l-3.277 2.864a35.492 35.492 0 00-10.004-19.744 35.635 35.635 0 00-8.626-6.357 1.183 1.183 0 00-1.582.492 1.181 1.181 0 00.492 1.58 33.303 33.303 0 018.06 5.94c5.596 5.592 8.914 12.692 9.593 20.532.08.935 1.23 1.4 1.938.78l4.067-3.555 2.571 2.936-9.115 7.968a1.973 1.973 0 01-2.571 0l-9.116-7.968 2.572-2.936 3.739 3.268c.79.69 2.057.023 1.934-1.018C62.886 17.341 50.381 6.242 35.535 6.242 19.386 6.242 6.248 19.367 6.248 35.5s13.138 29.258 29.287 29.258a1.17 1.17 0 100-2.34c-14.857 0-26.944-12.076-26.944-26.918 0-14.843 12.087-26.918 26.944-26.918 12.555 0 23.289 8.628 26.18 20.538l-2.109-1.843a1.184 1.184 0 00-1.653.11l-4.114 4.698a1.17 1.17 0 00.11 1.651l9.997 8.738c1.6 1.398 4.058 1.398 5.657 0l9.997-8.738a1.17 1.17 0 00.11-1.651z" mask="url(#ea)"/><path d="M54.904 66.787h-8.696c3.873-2.88 9.867-8.236 9.867-13.81 0-4.087-3.328-7.412-7.42-7.412-4.09 0-7.419 3.325-7.419 7.412a1.17 1.17 0 002.343 0 5.08 5.08 0 015.077-5.072 5.08 5.08 0 015.076 5.072c0 6.739-11.808 13.905-11.927 13.976-.46.276-.676.847-.514 1.358.153.48.612.816 1.117.816h12.495a1.17 1.17 0 100-2.34zM73.647 61.793H71.07V46.735c0-.48-.304-.922-.753-1.093a1.183 1.183 0 00-1.347.38L56.474 62.25c-.581.755-.023 1.884.929 1.884h11.324v3.823a1.17 1.17 0 002.343 0v-3.823h2.577a1.17 1.17 0 100-2.34zm-4.92 0h-8.945l8.945-11.617v11.617z" mask="url(#ea)"/></svg>